<svg height="398pt" viewBox="0 0 398.9813 398" width="398pt" xmlns="http://www.w3.org/2000/svg"><path d="m87.621094 359.558594-62.71875 14.398437 14.503906-62.613281zm0 0" fill="#90caf9"/><path d="m377.648438 63.878906c.074218 11.332032-4.425782 22.214844-12.480469 30.183594l-15.039063 15.148438-60.375-60.375 15.039063-15.144532c16.902343-16.109375 43.472656-16.109375 60.375 0 8.039062 7.980469 12.535156 18.859375 12.480469 30.1875zm0 0" fill="#90caf9"/><path d="m334.980469 124.25-226.238281 226.242188-60.375-60.269532 226.347656-226.34375zm0 0" fill="#42a5f5"/><path d="m380.316406 18.652344c-25.332031-24.214844-65.230468-24.214844-90.5625 0l-264 264c-1.382812 1.429687-2.375 3.191406-2.878906 5.117187l-22.613281 98.027344c-.804688 3.613281.277343 7.390625 2.878906 10.027344 2.046875 1.949219 4.75 3.050781 7.574219 3.09375.792968-.003907 1.582031-.109375 2.347656-.320313l98.132812-22.613281c1.949219-.445313 3.726563-1.445313 5.121094-2.878906l264-263.894531c24.886719-25.058594 24.886719-65.503907 0-90.558594zm-355.414062 355.304687 14.503906-62.613281 48.214844 48.214844zm83.839844-23.464843-60.375-60.269532 226.347656-226.34375 60.265625 60.371094zm256.425781-256.429688-15.039063 15.148438-60.375-60.375 15.039063-15.144532c16.902343-16.109375 43.472656-16.109375 60.375 0 16.640625 16.683594 16.640625 43.6875 0 60.371094zm0 0" fill="#1976d2"/></svg>