<svg height="512pt" viewBox="0 0 512.0852 512" width="512pt" xmlns="http://www.w3.org/2000/svg"><g fill-rule="evenodd"><path d="m502.042969 251.117188c2.039062 2.890624 2.039062 6.75 0 9.640624-19.394531 27.761719-122.121094 165.847657-245.9375 165.847657-123.820313 0-226.542969-138.085938-245.941407-165.847657-2.039062-2.890624-2.039062-6.75 0-9.640624 19.398438-27.757813 122.121094-165.847657 245.941407-165.847657 123.816406 0 226.542969 138.089844 245.9375 165.847657zm0 0" fill="#e5e8eb"/><path d="m367.039062 255.9375c0 61.265625-49.667968 110.933594-110.933593 110.933594s-110.933594-49.667969-110.933594-110.933594 49.667969-110.933594 110.933594-110.933594 110.933593 49.667969 110.933593 110.933594zm0 0" fill="#6ca4ea"/><path d="m307.304688 255.9375c0 28.277344-22.921876 51.199219-51.199219 51.199219-28.277344 0-51.199219-22.921875-51.199219-51.199219s22.921875-51.199219 51.199219-51.199219c28.277343 0 51.199219 22.921875 51.199219 51.199219zm0 0" fill="#656d77"/></g><path d="m497.539062 2.4375-116.445312 116.445312c-36.917969-24.226562-79.496094-42.144531-124.988281-42.144531-54.511719 0-110.933594 25.105469-167.738281 74.613281-2.300782 2.003907-3.355469 5.082032-2.769532 8.074219.585938 2.992188 2.722656 5.445313 5.605469 6.433594s6.078125.363281 8.375-1.636719c53.597656-46.730468 106.265625-70.417968 156.527344-70.417968 40.386719 1.390624 79.527343 14.328124 112.785156 37.28125l-34.671875 34.671874c-47.277344-41.152343-118.34375-38.691406-162.664062 5.628907-44.324219 44.320312-46.78125 115.386719-5.628907 162.664062l-36.96875 36.957031c-43.035156-32.265624-80.753906-71.066406-111.785156-115 13.410156-18.929687 28.03125-36.972656 43.765625-54.019531 2.070312-2.242187 2.78125-5.414062 1.875-8.328125-.910156-2.910156-3.300781-5.113281-6.277344-5.785156-2.976562-.667969-6.082031.300781-8.148437 2.542969-16.269531 17.601562-31.378907 36.242187-45.226563 55.808593-4.046875 5.84375-4.046875 13.585938 0 19.429688 31.613282 44.78125 69.960938 84.410156 113.679688 117.480469l-114.234375 114.234375c-2.21875 2.144531-3.109375 5.316406-2.328125 8.300781.78125 2.980469 3.113281 5.3125 6.09375 6.09375 2.984375.78125 6.15625-.109375 8.300781-2.328125l116.445313-116.445312c36.914062 24.269531 79.496093 42.144531 124.988281 42.144531 128 0 233.148437-141.183594 252.945312-169.488281 4.046875-5.84375 4.046875-13.585938 0-19.429688-31.617187-44.78125-69.960937-84.410156-113.683593-117.480469l114.238281-114.234375c3.234375-3.347656 3.1875-8.671875-.105469-11.960937-3.289062-3.292969-8.613281-3.339844-11.960938-.105469zm-343.835937 253.5c-.035156-39.867188 23.09375-76.128906 59.261719-92.902344 36.167968-16.773437 78.789062-11.003906 109.195312 14.78125l-30.351562 30.335938c-23.734375-17.898438-57.027344-15.574219-78.046875 5.441406-21.019531 21.019531-23.339844 54.3125-5.441407 78.046875l-30.355468 30.355469c-15.671875-18.441406-24.273438-41.859375-24.261719-66.058594zm145.070313 0c.023437 15.707031-8.597657 30.15625-22.433594 37.589844-13.835938 7.4375-30.640625 6.65625-43.726563-2.03125l59.050781-59.050782c4.632813 6.957032 7.105469 15.132813 7.109376 23.492188zm-85.335938 0c-.023438-15.707031 8.597656-30.152344 22.433594-37.589844 13.835937-7.4375 30.640625-6.65625 43.726562 2.03125l-59.050781 59.050782c-4.632813-6.957032-7.105469-15.132813-7.109375-23.492188zm281.601562-.066406c-18.917968 27.082031-119.46875 162.199218-238.933593 162.199218-40.386719-1.390624-79.527344-14.328124-112.785157-37.28125l34.671876-34.671874c24.691406 21.496093 57.140624 31.886718 89.726562 28.734374 32.585938-3.148437 62.441406-19.5625 82.558594-45.390624 2.90625-3.714844 2.246094-9.078126-1.464844-11.980469-3.714844-2.902344-9.078125-2.246094-11.980469 1.46875-17.121093 21.964843-42.464843 35.996093-70.167969 38.847656-27.703124 2.851563-55.371093-5.722656-76.605468-23.738281l30.34375-30.335938c23.734375 17.898438 57.027344 15.578125 78.042968-5.441406 21.019532-21.019531 23.34375-54.3125 5.445313-78.046875l30.355469-30.351563c19.195312 22.628907 27.601562 52.484376 23.039062 81.808594-.726562 4.65625 2.460938 9.023438 7.121094 9.75 4.660156.722656 9.023438-2.464844 9.75-7.121094.9375-6.082031 1.414062-12.226562 1.414062-18.382812.003907-28.722656-10.402343-56.472656-29.285156-78.113281l36.964844-36.957031c43.039062 32.265624 80.757812 71.070312 111.789062 115.003906zm0 0" fill="#232323"/></svg>