<svg height="511pt" viewBox="0 -76 511.97732 511" width="511pt" xmlns="http://www.w3.org/2000/svg"><g fill-rule="evenodd"><path d="m501.9375 174.867188c2.039062 2.890624 2.039062 6.753906 0 9.644531-19.398438 27.757812-122.121094 165.84375-245.941406 165.84375-123.816406 0-226.542969-138.085938-245.9375-165.84375-2.039063-2.890625-2.039063-6.753907 0-9.644531 19.394531-27.757813 122.121094-165.84375 245.9375-165.84375 123.820312 0 226.542968 138.085937 245.941406 165.84375zm0 0" fill="#e5e8eb"/><path d="m366.929688 179.6875c0 61.269531-49.664063 110.933594-110.933594 110.933594-61.265625 0-110.933594-49.664063-110.933594-110.933594 0-61.265625 49.667969-110.933594 110.933594-110.933594 61.269531 0 110.933594 49.667969 110.933594 110.933594zm0 0" fill="#6ca4ea"/><path d="m307.195312 179.6875c0 28.277344-22.921874 51.199219-51.199218 51.199219s-51.199219-22.921875-51.199219-51.199219 22.921875-51.199219 51.199219-51.199219 51.199218 22.921875 51.199218 51.199219zm0 0" fill="#656d77"/><path d="m60.320312 113.683594c-3.464843-3.195313-8.863281-2.976563-12.058593.484375-16.269531 17.601562-31.378907 36.246093-45.226563 55.808593-4.046875 5.847657-4.046875 13.585938 0 19.429688 19.8125 28.296875 124.960938 169.480469 252.960938 169.480469s233.148437-141.183594 252.945312-169.488281c4.046875-5.84375 4.046875-13.585938 0-19.429688-19.796875-28.296875-124.945312-169.480469-252.945312-169.480469-54.511719 0-110.933594 25.105469-167.738282 74.617188-2.300781 2-3.355468 5.078125-2.769531 8.070312.585938 2.992188 2.722657 5.445313 5.605469 6.433594 2.886719.992187 6.078125.367187 8.375-1.636719 53.597656-46.730468 106.265625-70.417968 156.527344-70.417968 119.46875 0 220.015625 135.117187 238.933594 162.066406-18.917969 27.085937-119.464844 162.199218-238.933594 162.199218-119.464844 0-220.015625-135.113281-238.933594-162.0625 13.414062-18.929687 28.03125-36.972656 43.769531-54.015624 1.53125-1.667969 2.335938-3.875 2.242188-6.136719-.097657-2.261719-1.089844-4.390625-2.753907-5.921875zm0 0" fill="#232323"/><path d="m364.300781 205.1875c2.238281.347656 4.523438-.203125 6.351563-1.539062 1.832031-1.332032 3.054687-3.339844 3.402344-5.578126 7.695312-49.410156-16.195313-98.378906-59.871094-122.726562-43.671875-24.351562-97.890625-18.921875-135.871094 13.597656-37.984375 32.523438-51.691406 85.257813-34.359375 132.160156 17.332031 46.902344 62.042969 78.046876 112.042969 78.054688 36.8125.09375 71.59375-16.871094 94.175781-45.945312 2.902344-3.710938 2.246094-9.078126-1.46875-11.980469-3.714844-2.902344-9.078125-2.246094-11.980469 1.46875-31.691406 40.542969-88.574218 51.21875-132.8125 24.929687-44.238281-26.292968-62.046875-81.359375-41.585937-128.574218 20.460937-47.21875 72.824219-71.875 122.253906-57.570313 49.433594 14.300781 80.535156 63.109375 72.625 113.957031-.726563 4.648438 2.449219 9.011719 7.097656 9.746094zm0 0" fill="#232323"/></g><path d="m196.265625 179.6875c0 32.992188 26.742187 59.734375 59.730469 59.734375 32.992187 0 59.734375-26.742187 59.734375-59.734375 0-32.988281-26.742188-59.730469-59.734375-59.730469-32.972656.039063-59.691406 26.757813-59.730469 59.730469zm102.398437 0c0 23.566406-19.101562 42.667969-42.667968 42.667969-23.5625 0-42.664063-19.101563-42.664063-42.667969 0-23.5625 19.101563-42.664062 42.664063-42.664062 23.554687.027343 42.640625 19.113281 42.667968 42.664062zm0 0" fill="#232323"/></svg>