<svg height="512pt" viewBox="0 0 512.121 512" width="512pt" xmlns="http://www.w3.org/2000/svg"><g fill-rule="evenodd"><path d="m435.253906 236.347656v258.644532c0 4.714843-3.820312 8.535156-8.53125 8.535156h-110.933594c-4.714843 0-8.535156-3.820313-8.535156-8.535156v-153.597657c0-4.714843-3.820312-8.535156-8.53125-8.535156h-85.335937c-4.710938 0-8.53125 3.820313-8.53125 8.535156v153.597657c0 4.714843-3.820313 8.535156-8.535157 8.535156h-110.933593c-4.710938 0-8.53125-3.820313-8.53125-8.535156v-258.644532l173.824219-140.203125c3.125-2.558593 7.625-2.558593 10.75 0zm0 0" fill="#cbd1d7"/><path d="m501.730469 232.335938-21.503907 28.757812c-1.386718 1.886719-3.480468 3.125-5.800781 3.429688-2.316406.304687-4.660156-.347657-6.488281-1.808594l-32.683594-26.367188-173.824218-140.203125c-3.132813-2.539062-7.617188-2.539062-10.75 0l-173.824219 140.203125-32.683594 26.367188c-1.828125 1.460937-4.171875 2.113281-6.488281 1.808594-2.320313-.304688-4.414063-1.542969-5.800782-3.429688l-21.503906-28.757812c-2.878906-3.761719-2.234375-9.136719 1.453125-12.117188l238.847657-192.679688c3.15625-2.476562 7.59375-2.476562 10.75 0l88.492187 71.421876 68.265625 55.039062 82.089844 66.21875c3.6875 2.980469 4.332031 8.355469 1.453125 12.117188zm0 0" fill="#4d7693"/><path d="m418.1875 17.128906v136.871094l-68.265625-55.039062v-81.832032c0-4.714844 3.820313-8.535156 8.53125-8.535156h51.203125c4.710938 0 8.53125 3.820312 8.53125 8.535156zm0 0" fill="#3c5b72"/></g><path d="m83.492188 162.398438c-2.957032-3.664063-8.328126-4.238282-11.996094-1.28125l-65.058594 52.488281c-7.289062 5.835937-8.578125 16.425781-2.894531 23.835937l21.558593 28.859375c2.84375 3.75 7.089844 6.191407 11.765626 6.757813 4.554687.558594 9.136718-.777344 12.679687-3.695313l18.773437-15.15625v240.785157c0 9.425781 7.640626 17.066406 17.066407 17.066406h110.933593c9.425782 0 17.066407-7.640625 17.066407-17.066406v-153.597657h85.335937v153.597657c0 9.425781 7.640625 17.066406 17.066406 17.066406h110.933594c9.425782 0 17.066406-7.640625 17.066406-17.066406v-85.332032c0-4.710937-3.820312-8.53125-8.535156-8.53125-4.710937 0-8.53125 3.820313-8.53125 8.53125v85.332032h-110.933594v-153.597657c0-9.425781-7.640624-17.066406-17.066406-17.066406h-85.335937c-9.425781 0-17.066407 7.640625-17.066407 17.066406v153.597657h-110.933593v-254.546876l170.667969-137.660156 170.667968 137.652344v109.488281c0 4.714844 3.820313 8.535157 8.53125 8.535157 4.714844 0 8.535156-3.820313 8.535156-8.535157v-95.726562l18.773438 15.128906c3.542969 2.933594 8.140625 4.265625 12.703125 3.6875 4.703125-.578125 8.964844-3.042969 11.8125-6.824219l21.425781-28.648437c5.769532-7.425781 4.503906-18.105469-2.839844-23.976563l-78.941406-63.652344v-132.785156c0-9.425781-7.644531-17.0703122-17.066406-17.0703122h-51.203125c-9.425781 0-17.066406 7.6445312-17.066406 17.0703122v63.945313l-74.691407-60.253907c-6.273437-4.902343-15.089843-4.871093-21.332031.070313l-139.734375 112.691406c-3.378906 3.035157-3.789062 8.183594-.933594 11.714844 2.855469 3.53125 7.976563 4.207031 11.652344 1.535156l139.707032-112.636719 238.839843 193.03125-21.597656 28.832032-32.675781-26.359375-173.816406-140.191407c-6.25-5.109374-15.234376-5.109374-21.484376 0l-173.824218 140.203126-32.777344 26.273437-21.53125-29.125 65.027344-52.453125c1.761718-1.421875 2.886718-3.488281 3.125-5.738281.242187-2.253907-.421875-4.507813-1.847656-6.269531zm274.960937-145.269532h51.203125v119.039063l-51.203125-41.3125zm0 0" fill="#232323"/></svg>