<svg height="426pt" viewBox="-21 0 426 426.66667" width="426pt" xmlns="http://www.w3.org/2000/svg"><path d="m75 10.667969h106.667969c35.34375 0 64 28.652343 64 64v277.332031c0 35.347656-28.65625 64-64 64h-106.667969c-35.347656 0-64-28.652344-64-64v-277.332031c0-35.347657 28.652344-64 64-64zm0 0" fill="#42a5f5"/><g fill="#1976d2"><path d="m245.667969 320c-5.890625 0-10.667969 4.777344-10.667969 10.667969v42.664062c-.019531 17.667969-14.335938 31.980469-32 32h-149.332031c-17.667969-.019531-31.980469-14.332031-32-32v-320c.019531-17.664062 14.332031-31.980469 32-32h149.332031c17.664062.019531 31.980469 14.335938 32 32v42.667969c0 5.890625 4.777344 10.667969 10.667969 10.667969s10.664062-4.777344 10.664062-10.667969v-42.667969c-.03125-29.441406-23.890625-53.300781-53.332031-53.332031h-149.332031c-29.441407.0351562-53.300781 23.890625-53.335938 53.332031v320c.035157 29.441407 23.894531 53.300781 53.335938 53.335938h149.332031c29.441406-.03125 53.300781-23.890625 53.332031-53.335938v-42.664062c0-5.890625-4.773437-10.667969-10.664062-10.667969zm0 0"/><path d="m381.207031 205.792969-64-64c-4.183593-4.042969-10.835937-3.984375-14.953125.128906-4.113281 4.113281-4.171875 10.765625-.128906 14.953125l45.792969 45.792969h-230.25c-5.890625 0-10.667969 4.773437-10.667969 10.664062s4.777344 10.667969 10.667969 10.667969h230.25l-45.792969 45.792969c-2.773438 2.675781-3.882812 6.644531-2.910156 10.371093.976562 3.730469 3.890625 6.644532 7.621094 7.621094 3.726562.972656 7.695312-.136718 10.371093-2.910156l64-64c4.167969-4.164062 4.167969-10.917969 0-15.082031zm0 0"/></g></svg>