<svg height="512pt" viewBox="0 0 512 512.03904" width="512pt" xmlns="http://www.w3.org/2000/svg"><g fill-rule="evenodd"><path d="m503.488281 256c0 136.671875-110.792969 247.464844-247.464843 247.464844-136.675782 0-247.46875-110.792969-247.46875-247.464844s110.792968-247.464844 247.46875-247.464844c136.671874 0 247.464843 110.792969 247.464843 247.464844zm0 0" fill="#d9535f"/><g fill="#232323"><path d="m256.023438 0c-74.039063.0585938-144.429688 32.140625-193.039063 87.984375-48.613281 55.839844-70.691406 129.980469-60.546875 203.316406.695312 4.621094 4.976562 7.824219 9.605469 7.183594 4.628906-.640625 7.882812-4.882813 7.296875-9.519531-1.5-10.925782-2.253906-21.9375-2.25-32.964844.109375-122.015625 92.203125-224.316406 213.539062-237.203125 121.332032-12.882813 232.859375 67.789063 258.597656 187.0625 25.734376 119.269531-42.601562 238.753906-158.453124 277.050781-115.851563 38.292969-241.9375-16.929687-292.351563-128.042968-2.015625-4.175782-7-5.980469-11.21875-4.058594-4.222656 1.917968-6.136719 6.859375-4.3125 11.125 52.703125 115.941406 182.617187 175.511718 304.863281 139.789062s199.640625-155.878906 181.613282-281.953125c-18.023438-126.078125-125.988282-219.7304685-253.34375-219.769531zm0 0"/><path d="m139.054688 372.964844c3.332031 3.332031 8.734374 3.332031 12.066406 0l104.902344-104.898438 104.898437 104.898438c3.347656 3.234375 8.671875 3.1875 11.960937-.101563 3.292969-3.292969 3.339844-8.613281.105469-11.964843l-104.902343-104.898438 36.636718-36.632812c3.234375-3.347657 3.1875-8.671876-.105468-11.964844-3.292969-3.289063-8.613282-3.335938-11.960938-.101563l-36.632812 36.632813-104.902344-104.898438c-3.347656-3.234375-8.671875-3.1875-11.960938.101563-3.292968 3.292969-3.339844 8.613281-.105468 11.964843l104.902343 104.898438-104.902343 104.898438c-3.332032 3.335937-3.332032 8.734374 0 12.066406zm0 0"/><path d="m338.855469 185.234375 34.132812-34.132813c3.234375-3.351562 3.1875-8.671874-.105469-11.964843-3.289062-3.289063-8.613281-3.335938-11.960937-.101563l-34.132813 34.132813c-2.21875 2.140625-3.109374 5.3125-2.328124 8.296875s3.113281 5.3125 6.09375 6.09375c2.984374.78125 6.15625-.105469 8.300781-2.324219zm0 0"/></g></g></svg>