<svg height="512pt" viewBox="0 0 512.07676 512" width="512pt" xmlns="http://www.w3.org/2000/svg"><g fill-rule="evenodd"><path d="m430.609375 296.246094c-5.875 18.945312-13.472656 37.308594-22.699219 54.867187l40.449219 60.671875c-10.859375 13.476563-23.132813 25.75-36.609375 36.609375l-60.671875-40.449219c-17.558594 9.226563-35.925781 16.824219-54.867187 22.699219l-14.335938 71.511719c-17.191406 1.820312-34.523438 1.820312-51.714844 0l-14.335937-71.511719c-18.945313-5.875-37.308594-13.472656-54.867188-22.699219l-60.671875 40.449219c-13.476562-10.859375-25.75-23.132812-36.609375-36.609375l40.449219-60.671875c-9.226562-17.558593-16.824219-35.921875-22.699219-54.867187l-71.511719-14.335938c-1.820312-17.191406-1.820312-34.523437 0-51.710937l71.511719-14.339844c5.875-18.941406 13.472657-37.308594 22.699219-54.867187l-40.449219-60.671876c10.859375-13.476562 23.132813-25.75 36.609375-36.609374l60.671875 40.449218c17.558594-9.226562 35.921875-16.824218 54.867188-22.699218l14.335937-71.507813c17.191406-1.820313 34.523438-1.820313 51.714844 0l14.335938 71.507813c18.941406 5.875 37.308593 13.472656 54.867187 22.699218l60.671875-40.449218c13.476562 10.859374 25.75 23.132812 36.609375 36.609374l-40.449219 60.671876c9.226563 17.558593 16.824219 35.925781 22.699219 54.867187l71.507813 14.339844c1.820312 17.1875 1.820312 34.519531 0 51.710937zm0 0" fill="#4d7693"/><path d="m366.949219 256.054688c0 61.265624-49.664063 110.933593-110.933594 110.933593-61.265625 0-110.933594-49.667969-110.933594-110.933593 0-61.269532 49.667969-110.933594 110.933594-110.933594 61.269531 0 110.933594 49.664062 110.933594 110.933594zm0 0" fill="#3c5b72"/><path d="m315.75 256.054688c0 32.988281-26.742188 59.730468-59.734375 59.730468-32.988281 0-59.730469-26.742187-59.730469-59.730468 0-32.992188 26.742188-59.734376 59.730469-59.734376 32.992187 0 59.734375 26.742188 59.734375 59.734376zm0 0" fill="#b8df8a"/><path d="m8.242188 290.28125 66.296874 13.285156c5.355469 16.132813 11.957032 31.824219 19.738282 46.933594l-37.703125 56.59375c-2.054688 3.085938-1.882813 7.148438.429687 10.050781 11.257813 13.980469 23.984375 26.707031 37.964844 37.964844 2.898438 2.3125 6.964844 2.484375 10.050781.425781l56.550781-37.699218c15.109376 7.789062 30.800782 14.386718 46.933594 19.738281l13.285156 66.296875c.722657 3.652344 3.730469 6.414062 7.433594 6.824218 17.8125 1.890626 35.777344 1.890626 53.589844 0 3.699219-.410156 6.710938-3.171874 7.433594-6.824218l13.285156-66.296875c16.128906-5.355469 31.820312-11.957031 46.933594-19.738281l56.59375 37.660156c3.085937 2.058594 7.148437 1.882812 10.050781-.429688 13.976563-11.257812 26.707031-23.984375 37.964844-37.964844 2.3125-2.898437 2.484375-6.964843.425781-10.050781l-37.699219-56.550781c7.785157-15.109375 14.386719-30.800781 19.738281-46.933594l66.292969-13.285156c3.65625-.722656 6.417969-3.730469 6.828125-7.433594 1.890625-17.8125 1.890625-35.777344 0-53.589844-.410156-3.699218-3.171875-6.710937-6.828125-7.433593l-66.292969-13.285157c-5.359374-16.128906-11.957031-31.820312-19.738281-46.933593l37.699219-56.550781c2.058594-3.085938 1.886719-7.148438-.425781-10.050782-11.257813-13.976562-23.988281-26.707031-37.964844-37.964844-2.902344-2.3125-6.964844-2.484374-10.050781-.425781l-56.550782 37.699219c-15.109374-7.785156-30.800781-14.386719-46.933593-19.738281l-13.328125-66.292969c-.722656-3.65625-3.734375-6.417969-7.433594-6.828125-17.8125-1.886719-35.777344-1.886719-53.589844 0-3.703125.410156-6.710937 3.171875-7.433594 6.828125l-13.285156 66.292969c-16.132812 5.359375-31.824218 11.957031-46.933594 19.738281l-56.550781-37.699219c-3.085937-2.058593-7.152343-1.886719-10.050781.425781-13.980469 11.257813-26.707031 23.988282-37.964844 37.964844-2.3125 2.902344-2.484375 6.964844-.429687 10.050782l18.535156 27.734374c1.691406 2.535157 4.609375 3.976563 7.652344 3.78125 3.042969-.199218 5.75-2.003906 7.101562-4.738281 1.347657-2.730469 1.136719-5.976562-.554687-8.515625l-15.050782-22.457031c3.726563-4.378906 7.867188-8.859375 12.707032-13.757813 4.835937-4.898437 9.445312-9.035156 13.824218-12.800781l55.148438 36.769531c2.90625 2.054688 6.765625 2.140626 9.761719.222657 16.542969-8.957031 33.96875-16.175781 52.003906-21.539063 3.273437-.75 5.800781-3.351562 6.460937-6.644531l13.078126-65.265625c12.476562-.960938 25.003906-.960938 37.480468 0l13.082032 65.289062c.65625 3.296876 3.183593 5.898438 6.457031 6.648438 18.035156 5.359375 35.460937 12.578125 52.003906 21.539062 2.996094 1.917969 6.855469 1.828126 9.761719-.222656l55.183594-36.804687c4.378906 3.730469 8.859374 7.867187 13.757812 12.707031 4.898438 4.835938 9.035156 9.445312 12.800781 13.824219l-36.769531 55.148437c-2.058594 2.90625-2.148438 6.769532-.222656 9.765625 8.957031 16.539063 16.175781 33.96875 21.539062 52 .75 3.273438 3.351563 5.804688 6.644532 6.460938l65.265624 13.082031c.484376 6.050781.722657 12.328125.722657 18.773438 0 6.441406-.238281 12.6875-.722657 18.773437l-65.289062 13.082031c-3.296875.65625-5.898438 3.183594-6.648438 6.457032-5.359374 18.035156-12.578124 35.460937-21.539062 52.003906-1.921875 2.992187-1.835938 6.855468.222656 9.761718l36.804688 55.117188c-3.730469 4.375-7.867188 8.855469-12.707032 13.753906-4.835937 4.898438-9.445312 9.039063-13.824218 12.800782l-55.148438-36.769532c-2.910156-2.046875-6.765625-2.136718-9.765625-.222656-16.539062 8.960938-33.96875 16.175781-52 21.539062-3.273437.75-5.804687 3.351563-6.460937 6.648438l-13.082032 65.261719c-12.472656.964843-25.003906.964843-37.476562 0l-13.082031-65.289063c-.65625-3.292968-3.1875-5.894531-6.460938-6.648437-18.03125-5.359375-35.457031-12.578125-52-21.535157-2.992187-1.933593-6.863281-1.847656-9.761719.21875l-55.1875 36.804688c-4.375-3.726562-8.855468-7.867188-13.753906-12.707031-4.898437-4.835938-9.039062-9.480469-12.808594-13.855469l36.769532-55.152344c2.058594-2.902344 2.144531-6.765625.222656-9.761718-8.960938-16.542969-16.179688-33.96875-21.539062-52.003907-.75-3.273437-3.351563-5.800781-6.648438-6.457031l-65.253906-13.046875c-.484375-6.085937-.726563-12.367187-.726563-18.773437 0-6.410157.242188-12.691407.726563-18.773438l65.289062-13.082031c3.292969-.65625 5.894532-3.1875 6.648438-6.460938 5.359375-18.03125 12.578125-35.460937 21.535156-52 1.3125-1.996093 1.734375-4.441406 1.171875-6.761719-.5625-2.316406-2.0625-4.296874-4.140625-5.46875 0 0-7.679688-4.265624-13.082031 5.375-8.800781 15.679688-15.746094 32.335938-20.691407 49.621094l-66.296874 13.320313c-3.652344.722656-6.414063 3.734375-6.824219 7.433593-1.890625 17.8125-1.890625 35.777344 0 53.589844.410156 3.703125 3.171875 6.710938 6.824219 7.433594zm0 0" fill="#232323"/><path d="m365.96875 273.121094c2.261719.191406 4.503906-.53125 6.226562-2.007813 1.722657-1.476562 2.78125-3.582031 2.9375-5.84375.230469-3.03125.351563-6.101562.351563-9.191406.015625-60.449219-45.125-111.382813-105.136719-118.636719-60.015625-7.25-115.988281 31.472656-130.367187 90.183594-14.382813 58.714844 17.359375 118.917969 73.933593 140.222656 56.570313 21.304688 120.140626-3.003906 148.0625-56.617187 1.410157-2.703125 1.273438-5.953125-.363281-8.527344-1.632812-2.574219-4.515625-4.078125-7.5625-3.949219s-5.792969 1.871094-7.203125 4.574219c-23.929687 45.957031-78.414062 66.804687-126.90625 48.550781-48.492187-18.253906-75.707031-69.851562-63.386718-120.179687 12.316406-50.328125 60.289062-83.527344 111.726562-77.320313 51.441406 6.207032 90.140625 49.859375 90.136719 101.675782 0 2.660156-.101563 5.273437-.300781 7.875-.179688 2.261718.546874 4.5 2.019531 6.226562 1.472656 1.722656 3.570312 2.789062 5.832031 2.964844zm0 0" fill="#232323"/></g><path d="m187.75 256.054688c0 37.703124 30.5625 68.265624 68.265625 68.265624s68.269531-30.5625 68.269531-68.265624c0-37.703126-30.566406-68.269532-68.269531-68.269532-37.683594.042969-68.222656 30.582032-68.265625 68.269532zm119.46875 0c0 28.277343-22.925781 51.199218-51.203125 51.199218s-51.199219-22.921875-51.199219-51.199218c0-28.277344 22.921875-51.203126 51.199219-51.203126 28.265625.03125 51.171875 22.9375 51.203125 51.203126zm0 0" fill="#232323"/></svg>