<svg height="512pt" viewBox="-119 0 512 512" width="512pt" xmlns="http://www.w3.org/2000/svg"><g fill-rule="evenodd"><path d="m93.867188 230.398438h85.332031c47.128906 0 85.335937 38.207031 85.335937 85.335937v170.664063c0 9.425781-7.644531 17.066406-17.070312 17.066406h-221.863282c-9.425781 0-17.066406-7.640625-17.066406-17.066406v-170.664063c0-47.128906 38.203125-85.335937 85.332032-85.335937zm0 0" fill="#6ca4ea"/><path d="m221.867188 93.867188c0 47.128906-38.207032 85.332031-85.332032 85.332031-47.128906 0-85.335937-38.203125-85.335937-85.332031 0-47.128907 38.207031-85.332032 85.335937-85.332032 47.125 0 85.332032 38.203125 85.332032 85.332032zm0 0" fill="#6ca4ea"/><g fill="#232323"><path d="m25.601562 512h221.863282c14.140625 0 25.601562-11.460938 25.601562-25.601562v-170.664063c-.0625-51.816406-42.050781-93.804687-93.867187-93.867187h-85.332031c-51.816407.0625-93.804688 42.050781-93.867188 93.867187v51.199219c0 4.710937 3.820312 8.53125 8.535156 8.53125 4.710938 0 8.53125-3.820313 8.53125-8.53125v-51.199219c.046875-42.398437 34.402344-76.753906 76.800782-76.800781h85.332031c42.398437.046875 76.753906 34.402344 76.800781 76.800781v170.664063c0 4.714843-3.820312 8.535156-8.535156 8.535156h-221.863282c-4.714843 0-8.535156-3.820313-8.535156-8.535156v-68.265626c0-4.710937-3.820312-8.53125-8.53125-8.53125-4.714844 0-8.535156 3.820313-8.535156 8.53125v68.265626c0 14.140624 11.460938 25.601562 25.601562 25.601562zm0 0"/><path d="m136.535156 187.734375c25.234375.078125 49.421875-10.082031 67.027344-28.160156 2.246094-2.152344 3.140625-5.359375 2.335938-8.363281-.804688-3.003907-3.175782-5.335938-6.195313-6.078126-3.019531-.746093-6.207031.207032-8.316406 2.492188-27.1875 27.671875-70.773438 30.632812-101.453125 6.894531-30.675782-23.738281-38.753906-66.667969-18.796875-99.929687 19.957031-33.265625 61.640625-46.339844 97.023437-30.441406 35.378906 15.898437 53.277344 55.75 41.65625 92.757812-.914062 2.910156-.207031 6.085938 1.855469 8.332031 2.0625 2.246094 5.164063 3.21875 8.140625 2.558594 2.976562-.664063 5.371094-2.863281 6.285156-5.769531 12.175782-38.714844-1.90625-80.867188-34.902344-104.488282-33-23.621093-77.441406-23.359374-110.164062.644532-32.71875 24.003906-46.308594 66.316406-33.683594 104.882812 12.625 38.570313 48.605469 64.65625 89.1875 64.667969zm0 0"/></g></g></svg>